<?xml version="1.0" encoding="utf-8"?>
<!-- Generator: Adobe Illustrator 24.1.1, SVG Export Plug-In . SVG Version: 6.00 Build 0)  -->
<svg version="1.1" id="Layer_1" xmlns="http://www.w3.org/2000/svg" xmlns:xlink="http://www.w3.org/1999/xlink" x="0px" y="0px"
	 viewBox="0 0 12 12" style="enable-background:new 0 0 12 12;" xml:space="preserve">
<style type="text/css">
	.st0{fill:#C084FC;}
</style>
<path class="st0" d="M6.1,6l-3-5.2c0,0,0,0-0.1,0c0,0,0,0,0,0L0,6C0,6,0,6,0,6l3,5.2c0,0,0,0,0.1,0c0,0,0,0,0,0L6.1,6
	C6.1,6,6.1,6,6.1,6z M7,5.4C7,5.4,7,5.4,7,5.4l1.6,0c0,0,0.1,0,0.1-0.1c0,0,0,0,0,0L6.1,0.8c0,0,0,0,0,0H4.5c0,0-0.1,0-0.1,0.1
	c0,0,0,0,0,0L7,5.4z M12,6L9,0.8c0,0,0,0,0,0H7.4c0,0-0.1,0-0.1,0.1c0,0,0,0,0,0l3,5.2l-3,5.2c0,0,0,0.1,0,0.1c0,0,0,0,0,0H9
	c0,0,0,0,0,0L12,6C12,6,12,6,12,6z M8.6,6.7H7c0,0,0,0,0,0l-2.5,4.5c0,0,0,0.1,0,0.1c0,0,0,0,0,0H6c0,0,0,0,0,0L8.6,6.7
	C8.6,6.7,8.6,6.7,8.6,6.7C8.6,6.7,8.6,6.7,8.6,6.7z"/>
</svg>
