<svg xmlns="http://www.w3.org/2000/svg" id="Layer_1" data-name="Layer 1" viewBox="0 0 172.75 203.85"><defs><style>.cls-1{fill:#8c8c8e}</style></defs><path d="M192.9,281.74c-7.86-2.07-15.86-3.93-22.3-9.3-4.51-3.75-8.88-7.7-13-11.84-11.45-11.4-23.46-22.35-33.95-34.59-13.63-15.9-14.19-42.26.62-58.39,26.17-28.49,52.67-56.67,79.14-84.9,6.87-7.33,16.26-6.15,20,2.33a10.91,10.91,0,0,1-2.16,12.57c-4.6,5-9.23,9.95-13.83,14.94-.82.89-1.56,1.84-2.77,3.28,2.46.63,4.37,1,6.23,1.62A52.54,52.54,0,0,1,228.6,127c9.16,7.38,18.29,14.8,27.56,22,9.06,7.08,5.73,18.49-1.86,21.23a11.84,11.84,0,0,1-12.07-2.15c-9.24-7.46-18.66-14.72-27.74-22.36-10-8.44-23.05-8.81-33.57-3.14a26.14,26.14,0,0,0-6.27,5.09q-15.27,16.16-30.36,32.48c-9.84,10.58-10.44,23.32-.49,33.74,12.5,13.08,25.47,25.74,38.73,38,8.68,8,23.89,9.82,35.46-1.94,6.35-6.45,12.73-12.86,19.3-19.08,6-5.67,14.12-4.64,18.32,2,2.51,4,2.74,9.19-.67,12.65-10.21,10.36-19.24,22.2-32.11,29.49-5.35,3-11.84,4-17.82,6l-1.92.6Z" class="cls-1" transform="translate(-113.25 -77.89)"/><path d="M231,210.48c-13.57,0-27.14,0-40.71,0-4.56,0-8.69-1.12-11.56-5.13-5.25-7.33-1.42-16.58,7.5-18a34.89,34.89,0,0,1,5.38-.53q39.71-.06,79.39,0c4.58,0,9.12.5,12.31,4.41a10.81,10.81,0,0,1,1.52,12.07c-2.37,5.12-6.78,7.13-12.1,7.17-13.11.11-26.23,0-39.35,0Z" class="cls-1" transform="translate(-113.25 -77.89)"/></svg>